<svg xmlns="http://www.w3.org/2000/svg" width="1439.1817626953125" height="947.8181762695312" style=""><rect id="backgroundrect" width="100%" height="100%" x="0" y="0" fill="none" stroke="none"/><g class="currentLayer" style=""><title>Layer 1</title><path fill="#3AA8C2" fill-opacity="1" d="M470.5347612150383,878.0628962280274 C534.1711212150383,831.3992562280273 631.4438412150383,903.0356262280274 711.4438412150383,871.3356262280273 C791.4438412150383,839.0356262280274 823.2620312150383,782.9992662280273 909.6256712150383,819.1538062280273 C995.9893112150384,855.3083562280274 1080.5347612150383,812.0356362280273 1128.7165712150384,758.6083662280273 C1176.8983812150384,705.1810962280274 1133.2620412150384,623.3537862280274 1229.6256812150384,543.4901662280273 C1325.9893212150382,463.62654622802734 1276.6711312150383,431.19471622802735 1320.3074912150382,367.62312622802733 C1363.9438612150384,304.05154622802735 1415.9893112150382,333.88565622802736 1444.1711312150383,239.46292622802736 L1446.8984012150383,662.0356362280273 L1440.5347612150383,952.7629062280273 L1400.5347612150383,952.7629062280273 C1360.5347612150383,952.7629062280273 1280.5347612150383,952.7629062280273 1200.5347612150383,952.7629062280273 C1120.5347612150383,952.7629062280273 1040.5347612150383,952.7629062280273 960.5347612150383,952.7629062280273 C880.5347612150383,952.7629062280273 800.5347612150383,952.7629062280273 720.5347612150383,952.7629062280273 C640.5347612150383,952.7629062280273 560.5347612150383,952.7629062280273 480.5347612150383,952.7629062280273 C400.5347612150383,952.7629062280273 320.5347612150383,952.7629062280273 240.5347612150383,952.7629062280273 C160.5347612150383,952.7629062280273 310.5347512150383,965.4901762280274 397.8074712150383,911.8538162280273 L470.5347612150383,878.0628962280274 z" id="svg_1" class=""/></g></svg>