<svg width="1280" height="959.9999999999999" xmlns="http://www.w3.org/2000/svg">

  <title>Layer 1</title>
  <path stroke-width="0" id="svg_1" d="m702.66606,716.91803c113.5749,-29.62666 148.60367,-239.02575 244.60367,-217.32575c48,10.65 111.43581,-165.38101 184.14941,-147.63007c72.7136,17.75095 131.09386,-97.10506 155.09386,-89.10506l-7.84694,694.06088l-48,0c-48,0 -144,0 -240,0c-96,0 -192,0 -288,0c-96,0 -192,0 -288,0c-96,0 -192,0 -288,0l288,-120l36,-15l36,-15l36,-15l36,-14.37107l36,-15.62893l36,-15l36,-15l36,-15z" fill="#0099ff"/>
 </g>
</svg>