<svg xmlns="http://www.w3.org/2000/svg" width="1440" height="320"><rect id="backgroundrect" width="100%" height="100%" x="0" y="0" fill="none" stroke="none"/><g class="currentLayer" style=""><title>Layer 1</title><path fill="#0099ff" fill-opacity="1" d="M0,256L40,256C80,256,160,256,240,245.3C320,235,400,213,480,181.3C560,149,640,107,720,117.3C800,128,880,192,960,181.3C1040,171,1120,85,1200,48C1280,11,1360,21,1400,26.7L1440,32L1440,320L1400,320C1360,320,1280,320,1200,320C1120,320,1040,320,960,320C880,320,800,320,720,320C640,320,560,320,480,320C400,320,320,320,240,320C160,320,80,320,40,320L0,320Z" id="svg_1" class="selected"/></g></svg>